HIERARCHY
ROOT Hips
{
    OFFSET   0.000000   0.000000   0.000000
    CHANNELS 6 Xposition Yposition Zposition Zrotation Xrotation Yrotation
    JOINT Chest
    {
        OFFSET   0.000000   8.007230   0.000000
        CHANNELS 3 Zrotation Xrotation Yrotation
        JOINT Chest2
        {
            OFFSET   0.000000  22.077100   0.000000
            CHANNELS 3 Zrotation Xrotation Yrotation
            JOINT Neck
            {
                OFFSET   0.000000  23.255100   0.000000
                CHANNELS 3 Zrotation Xrotation Yrotation
                JOINT Head
                {
                    OFFSET   0.000000  14.370100   1.956600
                    CHANNELS 3 Zrotation Xrotation Yrotation
                    End Site
                    {
                        OFFSET   0.000000  19.566000   0.000000
                    }
                }
            }
            JOINT LeftCollar
            {
                OFFSET   3.911900  19.017000  -0.467063
                CHANNELS 3 Zrotation Xrotation Yrotation
                JOINT LeftShoulder
                {
                    OFFSET  10.383700   0.000000   0.000000
                    CHANNELS 3 Zrotation Xrotation Yrotation
                    JOINT LeftElbow
                    {
                        OFFSET  26.662100   0.001193   0.000980
                        CHANNELS 3 Zrotation Xrotation Yrotation
                        JOINT LeftWrist
                        {
                            OFFSET  28.869000  -0.000059  -0.000082
                            CHANNELS 3 Zrotation Xrotation Yrotation
                            JOINT LeftFinger0
                            {
                                OFFSET   2.044650  -2.323450   3.252850
                                CHANNELS 3 Zrotation Xrotation Yrotation
                                JOINT LeftFinger01
                                {
                                    OFFSET   3.088130   0.000000   0.000000
                                    CHANNELS 3 Zrotation Xrotation Yrotation
                                    JOINT LeftFinger02
                                    {
                                        OFFSET   2.639460   0.000000   0.000000
                                        CHANNELS 3 Zrotation Xrotation Yrotation
                                        End Site
                                        {
                                            OFFSET   2.582190   0.000000   0.000000
                                        }
                                    }
                                }
                            }
                            JOINT LeftFinger1
                            {
                                OFFSET   8.364480   0.000000   3.252850
                                CHANNELS 3 Zrotation Xrotation Yrotation
                                JOINT LeftFinger11
                                {
                                    OFFSET   4.646930   0.000000   0.000000
                                    CHANNELS 3 Zrotation Xrotation Yrotation
                                    JOINT LeftFinger12
                                    {
                                        OFFSET   2.323470   0.000000   0.000000
                                        CHANNELS 3 Zrotation Xrotation Yrotation
                                        End Site
                                        {
                                            OFFSET   2.273050   0.000000   0.000000
                                        }
                                    }
                                }
                            }
                            JOINT LeftFinger2
                            {
                                OFFSET   8.364490   0.000016   1.078090
                                CHANNELS 3 Zrotation Xrotation Yrotation
                                JOINT LeftFinger21
                                {
                                    OFFSET   5.111610   0.000000   0.000000
                                    CHANNELS 3 Zrotation Xrotation Yrotation
                                    JOINT LeftFinger22
                                    {
                                        OFFSET   2.788150   0.000016   0.000000
                                        CHANNELS 3 Zrotation Xrotation Yrotation
                                        End Site
                                        {
                                            OFFSET   2.727660   0.000000   0.000000
                                        }
                                    }
                                }
                            }
                            JOINT LeftFinger3
                            {
                                OFFSET   7.899780   0.000015  -1.078090
                                CHANNELS 3 Zrotation Xrotation Yrotation
                                JOINT LeftFinger31
                                {
                                    OFFSET   4.646930   0.000000   0.000000
                                    CHANNELS 3 Zrotation Xrotation Yrotation
                                    JOINT LeftFinger32
                                    {
                                        OFFSET   2.323470   0.000000   0.000000
                                        CHANNELS 3 Zrotation Xrotation Yrotation
                                        End Site
                                        {
                                            OFFSET   2.273050   0.000000   0.000000
                                        }
                                    }
                                }
                            }
                            JOINT LeftFinger4
                            {
                                OFFSET   7.435090   0.000000  -3.252850
                                CHANNELS 3 Zrotation Xrotation Yrotation
                                JOINT LeftFinger41
                                {
                                    OFFSET   3.717550   0.000000   0.000000
                                    CHANNELS 3 Zrotation Xrotation Yrotation
                                    JOINT LeftFinger42
                                    {
                                        OFFSET   1.858770   0.000000   0.000000
                                        CHANNELS 3 Zrotation Xrotation Yrotation
                                        End Site
                                        {
                                            OFFSET   1.818440   0.000000   0.000000
                                        }
                                    }
                                }
                            }
                        }
                    }
                }
            }
            JOINT RightCollar
            {
                OFFSET  -3.911910  19.017000  -0.467062
                CHANNELS 3 Zrotation Xrotation Yrotation
                JOINT RightShoulder
                {
                    OFFSET -10.383700   0.000014   0.000000
                    CHANNELS 3 Zrotation Xrotation Yrotation
                    JOINT RightElbow
                    {
                        OFFSET -26.662100   0.001225   0.001091
                        CHANNELS 3 Zrotation Xrotation Yrotation
                        JOINT RightWrist
                        {
                            OFFSET -28.869000  -0.000020  -0.000085
                            CHANNELS 3 Zrotation Xrotation Yrotation
                            JOINT RightFinger0
                            {
                                OFFSET  -2.044650  -2.323490   3.252850
                                CHANNELS 3 Zrotation Xrotation Yrotation
                                JOINT RightFinger01
                                {
                                    OFFSET  -3.088130   0.000000   0.000000
                                    CHANNELS 3 Zrotation Xrotation Yrotation
                                    JOINT RightFinger02
                                    {
                                        OFFSET  -2.639460   0.000000   0.000000
                                        CHANNELS 3 Zrotation Xrotation Yrotation
                                        End Site
                                        {
                                            OFFSET  -2.582190   0.000000   0.000000
                                        }
                                    }
                                }
                            }
                            JOINT RightFinger1
                            {
                                OFFSET  -8.364480   0.000000   3.252850
                                CHANNELS 3 Zrotation Xrotation Yrotation
                                JOINT RightFinger11
                                {
                                    OFFSET  -4.646930   0.000000   0.000000
                                    CHANNELS 3 Zrotation Xrotation Yrotation
                                    JOINT RightFinger12
                                    {
                                        OFFSET  -2.323470   0.000000   0.000000
                                        CHANNELS 3 Zrotation Xrotation Yrotation
                                        End Site
                                        {
                                            OFFSET  -2.273050   0.000000   0.000000
                                        }
                                    }
                                }
                            }
                            JOINT RightFinger2
                            {
                                OFFSET  -8.364480   0.000000   1.078090
                                CHANNELS 3 Zrotation Xrotation Yrotation
                                JOINT RightFinger21
                                {
                                    OFFSET  -5.111620   0.000000   0.000000
                                    CHANNELS 3 Zrotation Xrotation Yrotation
                                    JOINT RightFinger22
                                    {
                                        OFFSET  -2.788160   0.000000   0.000000
                                        CHANNELS 3 Zrotation Xrotation Yrotation
                                        End Site
                                        {
                                            OFFSET  -2.727660   0.000000   0.000000
                                        }
                                    }
                                }
                            }
                            JOINT RightFinger3
                            {
                                OFFSET  -7.899780   0.000000  -1.078090
                                CHANNELS 3 Zrotation Xrotation Yrotation
                                JOINT RightFinger31
                                {
                                    OFFSET  -4.646930   0.000000   0.000000
                                    CHANNELS 3 Zrotation Xrotation Yrotation
                                    JOINT RightFinger32
                                    {
                                        OFFSET  -2.323470   0.000000   0.000000
                                        CHANNELS 3 Zrotation Xrotation Yrotation
                                        End Site
                                        {
                                            OFFSET  -2.273050   0.000000   0.000000
                                        }
                                    }
                                }
                            }
                            JOINT RightFinger4
                            {
                                OFFSET  -7.435090   0.000000  -3.252850
                                CHANNELS 3 Zrotation Xrotation Yrotation
                                JOINT RightFinger41
                                {
                                    OFFSET  -3.717550   0.000000   0.000000
                                    CHANNELS 3 Zrotation Xrotation Yrotation
                                    JOINT RightFinger42
                                    {
                                        OFFSET  -1.858760   0.000000   0.000000
                                        CHANNELS 3 Zrotation Xrotation Yrotation
                                        End Site
                                        {
                                            OFFSET  -1.818440   0.000000   0.000000
                                        }
                                    }
                                }
                            }
                        }
                    }
                }
            }
        }
    }
    JOINT LeftHip
    {
        OFFSET   9.783030   0.000000   0.000000
        CHANNELS 3 Zrotation Xrotation Yrotation
        JOINT LeftKnee
        {
            OFFSET   0.000063 -41.789100   0.000608
            CHANNELS 3 Zrotation Xrotation Yrotation
            JOINT LeftAnkle
            {
                OFFSET   0.000048 -41.133200  -0.000184
                CHANNELS 3 Zrotation Xrotation Yrotation
                JOINT LeftToe
                {
                    OFFSET   0.000000  -6.358960  14.674500
                    CHANNELS 3 Zrotation Xrotation Yrotation
                    End Site
                    {
                        OFFSET   0.000000   0.000000   3.913200
                    }
                }
            }
        }
    }
    JOINT RightHip
    {
        OFFSET  -9.783030   0.000000   0.000000
        CHANNELS 3 Zrotation Xrotation Yrotation
        JOINT RightKnee
        {
            OFFSET   0.000071 -41.789100   0.001239
            CHANNELS 3 Zrotation Xrotation Yrotation
            JOINT RightAnkle
            {
                OFFSET   0.000037 -41.133200  -0.000166
                CHANNELS 3 Zrotation Xrotation Yrotation
                JOINT RightToe
                {
                    OFFSET   0.000000  -6.358960  14.674500
                    CHANNELS 3 Zrotation Xrotation Yrotation
                    End Site
                    {
                        OFFSET   0.000000   0.000000   3.913200
                    }
                }
            }
        }
    }
}
MOTION
Frames: 4
Frame Time:   0.016667
  0.192026  89.513300   0.486200  -2.950080  -7.047320   0.610998   1.544840   3.581280  -0.458996   3.127590   7.148700  -1.017760   0.571390  -0.249386  -0.000597   0.938718  -0.505975   7.395670  -5.631720   0.730654  -1.267570 -63.051000  -8.949430 -64.633700  -4.469110 -23.354000 -90.032700  13.698500  -7.756790  -9.404300  37.897800  16.838900 -56.074800  -7.852530  -0.000789  -0.000000   1.073700  -0.001982  -0.002348 -12.804700   2.739200 -11.869500 -10.709000   0.002400  -0.001276  -7.496300   0.005022  -0.004777 -14.770200   2.176350  -8.192820 -14.925600   0.002267  -0.000378  -9.940420   0.001481  -0.001464 -13.944500   0.937480  -3.769880 -13.975100   0.002304  -0.002491  -9.307440   0.001475  -0.002936 -11.947200  -0.263459   1.244150 -17.925700   0.001434  -0.002849 -11.938500   0.000979  -0.002109   1.636540  -0.592207  12.525900  52.855000 -20.773400  58.568100 -28.755100 -31.777900  66.882100 -20.331100 -17.786700  26.515400 -52.067800  32.561600  61.780100   6.922300  -0.003241   0.000432  -1.538850  -0.001969   0.004426  11.195000   1.274170   6.398470   9.215580   0.005526   0.002950   6.450920   0.005223   0.002010  11.390700   1.084020   5.355920  11.438700   0.006765   0.005861   7.618210   0.001179   0.003844  13.499800   0.369850   1.528700  13.502000   0.000976   0.003317   8.992320   0.007553   0.003072  14.855200  -0.164327  -0.623383  22.282200   0.003143   0.003789  14.839900   0.002396   0.007423   4.024580  11.196500   5.313690   0.978934   0.050911  11.807700  -2.627180  -2.860600   4.017740  -0.000000   0.000000   0.000000   1.530220   6.639340  -3.883720   1.023210   4.923300  -8.923090  -1.830480  -3.837790  -4.209060  -0.000000   0.000000  -0.000000
  0.195958  89.511800   0.518154  -2.939610  -7.003120   0.621491   1.540820   3.532610  -0.475018   3.120110   7.051010  -1.048240   0.578806  -0.225056  -0.000483   0.950921  -0.456421   7.432000  -5.594210   0.837778  -1.164950 -63.608700  -9.400130 -64.255100  -4.450730 -23.413900 -90.280900  13.915100  -7.999860  -9.444080  38.042400  17.180400 -56.280900  -8.065140  -0.000875  -0.000034   0.967413  -0.001993  -0.002411 -12.991900   2.755890 -11.768100 -10.861600   0.002354  -0.001520  -7.603100   0.005181  -0.005445 -14.929100   2.180910  -8.116630 -15.083300   0.002274  -0.000589 -10.045500   0.001528  -0.001733 -14.252000   0.944173  -3.714940 -14.282100   0.002195  -0.003294  -9.511860   0.001498  -0.003757 -12.182400  -0.271057   1.252980 -18.278700   0.001454  -0.003484 -12.173600   0.001130  -0.002218   1.693500  -0.512718  12.483700  53.303100 -21.324800  58.098800 -28.671400 -31.762400  66.986400 -20.874900 -17.689200  26.695000 -52.132300  32.610400  61.862800   7.204210  -0.003345   0.000472  -1.397890  -0.001970   0.004465  11.271800   1.250130   6.214760   9.274590   0.005490   0.003190   6.492220   0.005294   0.002250  11.494200   1.064860   5.155780  11.541200   0.006950   0.006156   7.686440   0.001938   0.004063  13.565400   0.315910   1.295970  13.566000   0.002447   0.003541   9.034910   0.007585   0.003241  14.966300  -0.163817  -0.619967  22.449300   0.003177   0.003789  14.951200   0.002487   0.007830   4.012010  11.159200   5.311550   0.980528   0.085531  11.803400  -2.628050  -2.898580   4.020800   0.000000   0.000000   0.000000   1.528780   6.620720  -3.884020   1.031370   4.914490  -8.942310  -1.841040  -3.856250  -4.201710   0.000000   0.000000   0.000000
  0.199040  89.510500   0.546264  -2.932460  -6.965950   0.632151   1.538610   3.490310  -0.488155   3.115690   6.966090  -1.073210   0.586596  -0.202323  -0.000372   0.963746  -0.410037   7.462100  -5.566890   0.932075  -1.077070 -64.085500  -9.808370 -63.848800  -4.422270 -23.445400 -90.491300  14.164200  -8.123790  -9.468720  38.096300  17.439800 -56.485000  -8.353110  -0.000960  -0.000084   0.823443  -0.002006  -0.002471 -13.330100   2.796460 -11.629900 -11.138700   0.002335  -0.002288  -7.797110   0.005350  -0.006153 -15.183200   2.185720  -7.994350 -15.335100   0.002323  -0.001287 -10.213200   0.001682  -0.002020 -14.631600   0.947332  -3.622210 -14.661200   0.002140  -0.004163  -9.764320   0.001580  -0.004598 -12.662500  -0.285138   1.267640 -18.998600   0.001591  -0.004158 -12.653100   0.001477  -0.002330   1.747860  -0.455215  12.441700  53.707500 -21.812600  57.600900 -28.509100 -31.737000  67.134000 -21.541600 -17.607300  26.766900 -52.095200  32.640000  61.972100   7.536670  -0.003458   0.000525  -1.231650  -0.001972   0.004506  11.460900   1.238350   6.084390   9.430360   0.005462   0.003934   6.601250   0.005369   0.002483  11.808000   1.057720   5.060150  11.855800   0.007143   0.007214   7.895970   0.003222   0.004554  13.689800   0.286467   1.176610  13.692300   0.005378   0.004282   9.119050   0.007628   0.003402  15.166800  -0.160244  -0.596062  22.750300   0.003288   0.003794  15.151700   0.002771   0.008229   3.999140  11.121900   5.308510   0.982130   0.120153  11.797700  -2.628810  -2.936550   4.025700  -0.000000   0.000000   0.000000   1.527400   6.602610  -3.885260   1.038760   4.911470  -8.955580  -1.852560  -3.873190  -4.198370  -0.000000   0.000000   0.000000
  0.201104  89.509100   0.567091  -2.932030  -6.940880   0.640382   1.538340   3.461680  -0.503349   3.115190   6.908440  -1.102770   0.597491  -0.188709  -0.000268   0.982471  -0.382394   7.499820  -5.553390   0.979365  -1.023910 -64.544600 -10.225300 -63.337300  -4.353560 -23.398900 -90.691600  14.564300  -8.130910  -9.465220  38.075300  17.457100 -56.544500  -8.766900  -0.001055  -0.000107   0.616561  -0.002022  -0.002549 -13.789400   2.849020 -11.442300 -11.515200   0.003856  -0.004630  -8.060660   0.005439  -0.006851 -15.469600   2.180480  -7.808670 -15.616700   0.004334  -0.002920 -10.400700   0.003213  -0.002175 -15.011600   0.955340  -3.547440 -15.040300   0.003903  -0.004759 -10.016900   0.002921  -0.005466 -13.230800  -0.296836   1.273450 -19.850200   0.006230  -0.004875 -13.220300   0.002275  -0.002470   1.810370  -0.438847  12.384000  54.019700 -22.197800  57.086900 -28.431400 -31.714300  67.203900 -22.462400 -17.652200  26.734600 -51.874400  32.542900  62.088500   8.156490  -0.003560   0.000588  -0.921749  -0.001980   0.004553  12.048600   1.275370   5.991280   9.915210   0.005436   0.008347   6.940650   0.005445   0.002719  12.694000   1.150350   5.156330  12.748100   0.007293   0.011753   8.490200   0.004286   0.005776  14.305900   0.303470   1.186850  14.309900   0.009140   0.008001   9.530400   0.007654   0.003552  15.666800  -0.142769  -0.512015  23.499600   0.010253   0.008405  15.650700   0.008275   0.008614   3.989980  11.135600   5.305290   0.980935   0.080978  11.795100  -2.623100  -2.933510   4.030090   0.000000   0.000000   0.000000   1.526300   6.591880  -3.886980   1.043610   4.914670  -8.963350  -1.862450  -3.890510  -4.199530   0.000000   0.000000  -0.000000
